<svg width="135" height="40" viewBox="0 0 135 40" fill="none" xmlns="http://www.w3.org/2000/svg">
<path d="M44.3757 10.4858H46.4666V13.3869C46.1529 13.4933 45.8297 13.5724 45.4969 13.6242C45.1668 13.676 44.7972 13.702 44.388 13.702C43.7661 13.702 43.2409 13.5778 42.8127 13.3296C42.3871 13.0814 42.0639 12.7281 41.8429 12.2698C41.622 11.8088 41.5115 11.2619 41.5115 10.629C41.5115 10.0098 41.6329 9.46967 41.8756 9.00866C42.1212 8.54765 42.4744 8.1903 42.9354 7.93661C43.3992 7.68019 43.9556 7.55198 44.6049 7.55198C44.9377 7.55198 45.2527 7.58335 45.5501 7.64609C45.8501 7.70611 46.1284 7.79203 46.3848 7.90388L46.1188 8.50946C45.8979 8.41399 45.6537 8.33215 45.3864 8.26396C45.1218 8.19576 44.8477 8.16166 44.564 8.16166C44.0757 8.16166 43.6569 8.26259 43.3078 8.46445C42.9613 8.66632 42.6954 8.95138 42.5099 9.31964C42.3271 9.6879 42.2357 10.1244 42.2357 10.629C42.2357 11.1282 42.3162 11.5633 42.4771 11.9343C42.6381 12.3026 42.889 12.589 43.23 12.7936C43.571 12.9982 44.0102 13.1005 44.5476 13.1005C44.8176 13.1005 45.0495 13.0855 45.2432 13.0554C45.4369 13.0227 45.6128 12.9845 45.771 12.9409V11.1078H44.3757V10.4858ZM51.2459 13.6201H47.9151V7.63791H51.2459V8.25168H48.6107V10.1871H51.0945V10.7927H48.6107V13.0063H51.2459V13.6201ZM54.4088 13.6201H53.7091V8.25168H51.8269V7.63791H56.2829V8.25168H54.4088V13.6201ZM59.364 13.6201V7.63791H60.0596V13.6201H59.364ZM63.5417 13.6201H62.842V8.25168H60.9598V7.63791H65.4158V8.25168H63.5417V13.6201ZM73.6853 10.6208C73.6853 11.0818 73.6266 11.5019 73.5093 11.8811C73.392 12.2575 73.2174 12.5822 72.9856 12.855C72.7564 13.125 72.4714 13.3337 72.1304 13.481C71.7894 13.6283 71.3939 13.702 70.9438 13.702C70.48 13.702 70.0749 13.6283 69.7285 13.481C69.3848 13.3337 69.0984 13.1236 68.8692 12.8509C68.6428 12.5781 68.4723 12.2521 68.3578 11.8729C68.2459 11.4937 68.19 11.0737 68.19 10.6126C68.19 10.0016 68.2909 9.46558 68.4928 9.00457C68.6946 8.54356 69.0002 8.18485 69.4093 7.92843C69.8213 7.67201 70.3368 7.5438 70.956 7.5438C71.548 7.5438 72.0458 7.67064 72.4496 7.92434C72.856 8.17803 73.1629 8.53538 73.3702 8.99639C73.5803 9.45467 73.6853 9.99615 73.6853 10.6208ZM68.9224 10.6208C68.9224 11.1282 68.9947 11.5674 69.1393 11.9384C69.2839 12.3094 69.5048 12.5958 69.8022 12.7977C70.1022 12.9995 70.4828 13.1005 70.9438 13.1005C71.4075 13.1005 71.7867 12.9995 72.0813 12.7977C72.3786 12.5958 72.5982 12.3094 72.7401 11.9384C72.8819 11.5674 72.9528 11.1282 72.9528 10.6208C72.9528 9.84884 72.7905 9.24599 72.4659 8.81226C72.144 8.3758 71.6407 8.15757 70.956 8.15757C70.4923 8.15757 70.1104 8.25714 69.8103 8.45627C69.5103 8.6554 69.2866 8.9391 69.1393 9.30736C68.9947 9.6729 68.9224 10.1107 68.9224 10.6208ZM79.6961 13.6201H78.8941L75.633 8.59539H75.6002C75.6084 8.72906 75.618 8.88182 75.6289 9.05367C75.6398 9.2228 75.648 9.4042 75.6534 9.59788C75.6616 9.78883 75.6657 9.98387 75.6657 10.183V13.6201H75.0192V7.63791H75.8171L79.066 12.6463H79.0946C79.0892 12.5508 79.0824 12.4158 79.0742 12.2412C79.066 12.0639 79.0578 11.8743 79.0496 11.6724C79.0442 11.4678 79.0414 11.2782 79.0414 11.1037V7.63791H79.6961V13.6201Z" fill="white"/>
<path d="M44.3757 10.4858V10.3858H44.2757V10.4858H44.3757ZM46.4666 10.4858H46.5666V10.3858H46.4666V10.4858ZM46.4666 13.3869L46.4988 13.4816L46.5666 13.4586V13.3869H46.4666ZM45.4969 13.6242L45.4815 13.5254L45.4814 13.5254L45.4969 13.6242ZM42.8127 13.3296L42.7623 13.416L42.7625 13.4161L42.8127 13.3296ZM41.8429 12.2698L41.7527 12.313L41.7528 12.3133L41.8429 12.2698ZM41.8756 9.00866L41.7874 8.96166L41.7872 8.96207L41.8756 9.00866ZM42.9354 7.93661L42.9836 8.02422L42.9838 8.02412L42.9354 7.93661ZM45.5501 7.64609L45.5294 7.74394L45.5305 7.74415L45.5501 7.64609ZM46.3848 7.90388L46.4764 7.94409L46.5167 7.8523L46.4248 7.81222L46.3848 7.90388ZM46.1188 8.50946L46.0792 8.60126L46.1704 8.64069L46.2104 8.54967L46.1188 8.50946ZM45.3864 8.26396L45.3614 8.36079L45.3617 8.36085L45.3864 8.26396ZM43.3078 8.46445L43.2577 8.37788L43.2574 8.37805L43.3078 8.46445ZM42.5099 9.31964L42.4206 9.27465L42.4203 9.27518L42.5099 9.31964ZM42.4771 11.9343L42.3854 11.9741L42.3855 11.9743L42.4771 11.9343ZM43.23 12.7936L43.1786 12.8793L43.23 12.7936ZM45.2432 13.0554L45.2585 13.1543L45.2599 13.1541L45.2432 13.0554ZM45.771 12.9409L45.7976 13.0373L45.871 13.017V12.9409H45.771ZM45.771 11.1078H45.871V11.0078H45.771V11.1078ZM44.3757 11.1078H44.2757V11.2078H44.3757V11.1078ZM44.3757 10.4858V10.5858H46.4666V10.4858V10.3858H44.3757V10.4858ZM46.4666 10.4858H46.3666V13.3869H46.4666H46.5666V10.4858H46.4666ZM46.4666 13.3869L46.4345 13.2922C46.1264 13.3967 45.8087 13.4744 45.4815 13.5254L45.4969 13.6242L45.5123 13.723C45.8507 13.6703 46.1795 13.5899 46.4988 13.4816L46.4666 13.3869ZM45.4969 13.6242L45.4814 13.5254C45.1574 13.5763 44.7931 13.602 44.388 13.602V13.702V13.802C44.8013 13.802 45.1762 13.7758 45.5124 13.723L45.4969 13.6242ZM44.388 13.702V13.602C43.7792 13.602 43.2724 13.4805 42.8628 13.2431L42.8127 13.3296L42.7625 13.4161C43.2095 13.6752 43.7529 13.802 44.388 13.802V13.702ZM42.8127 13.3296L42.8631 13.2432C42.4553 13.0054 42.1456 12.6673 41.933 12.2264L41.8429 12.2698L41.7528 12.3133C41.9821 12.7889 42.3189 13.1574 42.7623 13.416L42.8127 13.3296ZM41.8429 12.2698L41.9331 12.2266C41.7199 11.7819 41.6115 11.2504 41.6115 10.629H41.5115H41.4115C41.4115 11.2734 41.524 11.8357 41.7527 12.313L41.8429 12.2698ZM41.5115 10.629H41.6115C41.6115 10.023 41.7302 9.49943 41.9641 9.05526L41.8756 9.00866L41.7872 8.96207C41.5355 9.43992 41.4115 9.9966 41.4115 10.629H41.5115ZM41.8756 9.00866L41.9639 9.05567C42.2002 8.61193 42.5395 8.26863 42.9836 8.02422L42.9354 7.93661L42.8872 7.849C42.4093 8.11198 42.0421 8.48338 41.7874 8.96166L41.8756 9.00866ZM42.9354 7.93661L42.9838 8.02412C43.4297 7.77755 43.9688 7.65198 44.6049 7.65198V7.55198V7.45198C43.9425 7.45198 43.3686 7.58284 42.887 7.8491L42.9354 7.93661ZM44.6049 7.55198V7.65198C44.9314 7.65198 45.2395 7.68276 45.5294 7.74394L45.5501 7.64609L45.5707 7.54825C45.266 7.48395 44.944 7.45198 44.6049 7.45198V7.55198ZM45.5501 7.64609L45.5305 7.74415C45.8242 7.80289 46.0955 7.8868 46.3448 7.99554L46.3848 7.90388L46.4248 7.81222C46.1612 7.69727 45.8761 7.60932 45.5697 7.54804L45.5501 7.64609ZM46.3848 7.90388L46.2932 7.86367L46.0273 8.46925L46.1188 8.50946L46.2104 8.54967L46.4764 7.94409L46.3848 7.90388ZM46.1188 8.50946L46.1585 8.41767C45.9321 8.31982 45.6828 8.23637 45.4111 8.16706L45.3864 8.26396L45.3617 8.36085C45.6246 8.42793 45.8637 8.50815 46.0792 8.60126L46.1188 8.50946ZM45.3864 8.26396L45.4114 8.16712C45.1383 8.09674 44.8557 8.06166 44.564 8.06166V8.16166V8.26166C44.8396 8.26166 45.1053 8.29477 45.3614 8.36079L45.3864 8.26396ZM44.564 8.16166V8.06166C44.0618 8.06166 43.625 8.16554 43.2577 8.37788L43.3078 8.46445L43.3578 8.55103C43.6889 8.35964 44.0895 8.26166 44.564 8.26166V8.16166ZM43.3078 8.46445L43.2574 8.37805C42.8938 8.58995 42.6145 8.88962 42.4206 9.27465L42.5099 9.31964L42.5992 9.36462C42.7762 9.01313 43.0289 8.74269 43.3581 8.55086L43.3078 8.46445ZM42.5099 9.31964L42.4203 9.27518C42.2293 9.66005 42.1357 10.1124 42.1357 10.629H42.2357H42.3357C42.3357 10.1363 42.4249 9.71575 42.5994 9.36409L42.5099 9.31964ZM42.2357 10.629H42.1357C42.1357 11.1388 42.2179 11.588 42.3854 11.9741L42.4771 11.9343L42.5689 11.8945C42.4145 11.5386 42.3357 11.1176 42.3357 10.629H42.2357ZM42.4771 11.9343L42.3855 11.9743C42.5547 12.3614 42.8196 12.6639 43.1786 12.8793L43.23 12.7936L43.2815 12.7078C42.9585 12.514 42.7215 12.2437 42.5688 11.8943L42.4771 11.9343ZM43.23 12.7936L43.1786 12.8793C43.5396 13.096 43.9982 13.2005 44.5476 13.2005V13.1005V13.0005C44.0222 13.0005 43.6024 12.9004 43.2815 12.7078L43.23 12.7936ZM44.5476 13.1005V13.2005C44.821 13.2005 45.0583 13.1853 45.2585 13.1543L45.2432 13.0554L45.2279 12.9566C45.0408 12.9856 44.8143 13.0005 44.5476 13.0005V13.1005ZM45.2432 13.0554L45.2599 13.1541C45.4563 13.1209 45.6356 13.082 45.7976 13.0373L45.771 12.9409L45.7444 12.8445C45.5901 12.8871 45.4175 12.9246 45.2265 12.9568L45.2432 13.0554ZM45.771 12.9409H45.871V11.1078H45.771H45.671V12.9409H45.771ZM45.771 11.1078V11.0078H44.3757V11.1078V11.2078H45.771V11.1078ZM44.3757 11.1078H44.4757V10.4858H44.3757H44.2757V11.1078H44.3757ZM51.2459 13.6201V13.7201H51.3459V13.6201H51.2459ZM47.9151 13.6201H47.8151V13.7201H47.9151V13.6201ZM47.9151 7.63791V7.53791H47.8151V7.63791H47.9151ZM51.2459 7.63791H51.3459V7.53791H51.2459V7.63791ZM51.2459 8.25168V8.35168H51.3459V8.25168H51.2459ZM48.6107 8.25168V8.15168H48.5107V8.25168H48.6107ZM48.6107 10.1871H48.5107V10.2871H48.6107V10.1871ZM51.0945 10.1871H51.1945V10.0871H51.0945V10.1871ZM51.0945 10.7927V10.8927H51.1945V10.7927H51.0945ZM48.6107 10.7927V10.6927H48.5107V10.7927H48.6107ZM48.6107 13.0063H48.5107V13.1063H48.6107V13.0063ZM51.2459 13.0063H51.3459V12.9063H51.2459V13.0063ZM51.2459 13.6201V13.5201H47.9151V13.6201V13.7201H51.2459V13.6201ZM47.9151 13.6201H48.0151V7.63791H47.9151H47.8151V13.6201H47.9151ZM47.9151 7.63791V7.73791H51.2459V7.63791V7.53791H47.9151V7.63791ZM51.2459 7.63791H51.1459V8.25168H51.2459H51.3459V7.63791H51.2459ZM51.2459 8.25168V8.15168H48.6107V8.25168V8.35168H51.2459V8.25168ZM48.6107 8.25168H48.5107V10.1871H48.6107H48.7107V8.25168H48.6107ZM48.6107 10.1871V10.2871H51.0945V10.1871V10.0871H48.6107V10.1871ZM51.0945 10.1871H50.9945V10.7927H51.0945H51.1945V10.1871H51.0945ZM51.0945 10.7927V10.6927H48.6107V10.7927V10.8927H51.0945V10.7927ZM48.6107 10.7927H48.5107V13.0063H48.6107H48.7107V10.7927H48.6107ZM48.6107 13.0063V13.1063H51.2459V13.0063V12.9063H48.6107V13.0063ZM51.2459 13.0063H51.1459V13.6201H51.2459H51.3459V13.0063H51.2459ZM54.4088 13.6201V13.7201H54.5088V13.6201H54.4088ZM53.7091 13.6201H53.6091V13.7201H53.7091V13.6201ZM53.7091 8.25168H53.8091V8.15168H53.7091V8.25168ZM51.8269 8.25168H51.7269V8.35168H51.8269V8.25168ZM51.8269 7.63791V7.53791H51.7269V7.63791H51.8269ZM56.2829 7.63791H56.3829V7.53791H56.2829V7.63791ZM56.2829 8.25168V8.35168H56.3829V8.25168H56.2829ZM54.4088 8.25168V8.15168H54.3088V8.25168H54.4088ZM54.4088 13.6201V13.5201H53.7091V13.6201V13.7201H54.4088V13.6201ZM53.7091 13.6201H53.8091V8.25168H53.7091H53.6091V13.6201H53.7091ZM53.7091 8.25168V8.15168H51.8269V8.25168V8.35168H53.7091V8.25168ZM51.8269 8.25168H51.9269V7.63791H51.8269H51.7269V8.25168H51.8269ZM51.8269 7.63791V7.73791H56.2829V7.63791V7.53791H51.8269V7.63791ZM56.2829 7.63791H56.1829V8.25168H56.2829H56.3829V7.63791H56.2829ZM56.2829 8.25168V8.15168H54.4088V8.25168V8.35168H56.2829V8.25168ZM54.4088 8.25168H54.3088V13.6201H54.4088H54.5088V8.25168H54.4088ZM59.364 13.6201H59.264V13.7201H59.364V13.6201ZM59.364 7.63791V7.53791H59.264V7.63791H59.364ZM60.0596 7.63791H60.1596V7.53791H60.0596V7.63791ZM60.0596 13.6201V13.7201H60.1596V13.6201H60.0596ZM59.364 13.6201H59.464V7.63791H59.364H59.264V13.6201H59.364ZM59.364 7.63791V7.73791H60.0596V7.63791V7.53791H59.364V7.63791ZM60.0596 7.63791H59.9596V13.6201H60.0596H60.1596V7.63791H60.0596ZM60.0596 13.6201V13.5201H59.364V13.6201V13.7201H60.0596V13.6201ZM63.5417 13.6201V13.7201H63.6417V13.6201H63.5417ZM62.842 13.6201H62.742V13.7201H62.842V13.6201ZM62.842 8.25168H62.942V8.15168H62.842V8.25168ZM60.9598 8.25168H60.8598V8.35168H60.9598V8.25168ZM60.9598 7.63791V7.53791H60.8598V7.63791H60.9598ZM65.4158 7.63791H65.5158V7.53791H65.4158V7.63791ZM65.4158 8.25168V8.35168H65.5158V8.25168H65.4158ZM63.5417 8.25168V8.15168H63.4417V8.25168H63.5417ZM63.5417 13.6201V13.5201H62.842V13.6201V13.7201H63.5417V13.6201ZM62.842 13.6201H62.942V8.25168H62.842H62.742V13.6201H62.842ZM62.842 8.25168V8.15168H60.9598V8.25168V8.35168H62.842V8.25168ZM60.9598 8.25168H61.0598V7.63791H60.9598H60.8598V8.25168H60.9598ZM60.9598 7.63791V7.73791H65.4158V7.63791V7.53791H60.9598V7.63791ZM65.4158 7.63791H65.3158V8.25168H65.4158H65.5158V7.63791H65.4158ZM65.4158 8.25168V8.15168H63.5417V8.25168V8.35168H65.4158V8.25168ZM63.5417 8.25168H63.4417V13.6201H63.5417H63.6417V8.25168H63.5417ZM73.5093 11.8811L73.6048 11.9109L73.6049 11.9107L73.5093 11.8811ZM72.9856 12.855L72.9094 12.7902L72.9093 12.7903L72.9856 12.855ZM72.1304 13.481L72.17 13.5728L72.1304 13.481ZM69.7285 13.481L69.6891 13.5729L69.6894 13.573L69.7285 13.481ZM68.8692 12.8509L68.7923 12.9147L68.7927 12.9152L68.8692 12.8509ZM68.3578 11.8729L68.2618 11.9012L68.262 11.9018L68.3578 11.8729ZM69.4093 7.92843L69.3565 7.84353L69.3562 7.84369L69.4093 7.92843ZM72.4496 7.92434L72.3963 8.00901L72.3966 8.00917L72.4496 7.92434ZM73.3702 8.99639L73.279 9.0374L73.2793 9.03805L73.3702 8.99639ZM69.8022 12.7977L69.746 12.8804L69.7463 12.8806L69.8022 12.7977ZM72.0813 12.7977L72.0251 12.7149L72.0248 12.7152L72.0813 12.7977ZM72.4659 8.81226L72.3854 8.87161L72.3859 8.87218L72.4659 8.81226ZM69.8103 8.45627L69.755 8.37295L69.8103 8.45627ZM69.1393 9.30736L69.0464 9.27022L69.0463 9.27058L69.1393 9.30736ZM73.6853 10.6208H73.5853C73.5853 11.0734 73.5277 11.4833 73.4138 11.8516L73.5093 11.8811L73.6049 11.9107C73.7256 11.5205 73.7853 11.0903 73.7853 10.6208H73.6853ZM73.5093 11.8811L73.4139 11.8514C73.3002 12.2163 73.1317 12.5287 72.9094 12.7902L72.9856 12.855L73.0618 12.9197C73.3032 12.6357 73.4839 12.2988 73.6048 11.9109L73.5093 11.8811ZM72.9856 12.855L72.9093 12.7903C72.6906 13.048 72.4183 13.2477 72.0907 13.3892L72.1304 13.481L72.17 13.5728C72.5244 13.4197 72.8222 13.202 73.0618 12.9196L72.9856 12.855ZM72.1304 13.481L72.0907 13.3892C71.7646 13.5301 71.3831 13.602 70.9438 13.602V13.702V13.802C71.4047 13.802 71.8142 13.7265 72.17 13.5728L72.1304 13.481ZM70.9438 13.702V13.602C70.4904 13.602 70.0992 13.5299 69.7676 13.389L69.7285 13.481L69.6894 13.573C70.0507 13.7267 70.4696 13.802 70.9438 13.802V13.702ZM69.7285 13.481L69.7679 13.3891C69.4378 13.2476 69.1644 13.0467 68.9458 12.7865L68.8692 12.8509L68.7927 12.9152C69.0324 13.2005 69.3318 13.4198 69.6891 13.5729L69.7285 13.481ZM68.8692 12.8509L68.9462 12.787C68.7292 12.5256 68.5646 12.2119 68.4535 11.844L68.3578 11.8729L68.262 11.9018C68.38 12.2923 68.5564 12.6305 68.7923 12.9147L68.8692 12.8509ZM68.3578 11.8729L68.4537 11.8446C68.3449 11.476 68.29 11.0656 68.29 10.6126H68.19H68.09C68.09 11.0817 68.1469 11.5115 68.2618 11.9012L68.3578 11.8729ZM68.19 10.6126H68.29C68.29 10.0125 68.3891 9.49064 68.5844 9.04468L68.4928 9.00457L68.4012 8.96446C68.1927 9.44052 68.09 9.99069 68.09 10.6126H68.19ZM68.4928 9.00457L68.5844 9.04468C68.7786 8.60125 69.071 8.25845 69.4624 8.01316L69.4093 7.92843L69.3562 7.84369C68.9293 8.11125 68.6107 8.48587 68.4012 8.96446L68.4928 9.00457ZM69.4093 7.92843L69.4622 8.01332C69.8544 7.76916 70.3504 7.6438 70.956 7.6438V7.5438V7.4438C70.3232 7.4438 69.7881 7.57485 69.3565 7.84353L69.4093 7.92843ZM70.956 7.5438V7.6438C71.5337 7.6438 72.012 7.7675 72.3963 8.00901L72.4496 7.92434L72.5028 7.83966C72.0796 7.57379 71.5623 7.4438 70.956 7.4438V7.5438ZM72.4496 7.92434L72.3966 8.00917C72.7853 8.25177 73.0793 8.59342 73.279 9.0374L73.3702 8.99639L73.4614 8.95537C73.2464 8.47734 72.9267 8.10428 72.5025 7.8395L72.4496 7.92434ZM73.3702 8.99639L73.2793 9.03805C73.4821 9.48052 73.5853 10.0072 73.5853 10.6208H73.6853H73.7853C73.7853 9.98512 73.6784 9.42881 73.4611 8.95472L73.3702 8.99639ZM68.9224 10.6208H68.8224C68.8224 11.1374 68.896 11.5894 69.0461 11.9747L69.1393 11.9384L69.2325 11.9021C69.0934 11.5454 69.0224 11.1191 69.0224 10.6208H68.9224ZM69.1393 11.9384L69.0461 11.9747C69.1972 12.3624 69.4301 12.666 69.746 12.8804L69.8022 12.7977L69.8583 12.7149C69.5795 12.5257 69.3705 12.2563 69.2325 11.9021L69.1393 11.9384ZM69.8022 12.7977L69.7463 12.8806C70.0669 13.0963 70.4683 13.2005 70.9438 13.2005V13.1005V13.0005C70.4972 13.0005 70.1375 12.9028 69.858 12.7147L69.8022 12.7977ZM70.9438 13.1005V13.2005C71.4217 13.2005 71.8222 13.0964 72.1378 12.8802L72.0813 12.7977L72.0248 12.7152C71.7511 12.9027 71.3933 13.0005 70.9438 13.0005V13.1005ZM72.0813 12.7977L72.1375 12.8804C72.4535 12.6658 72.6851 12.3621 72.8335 11.9741L72.7401 11.9384L72.6467 11.9027C72.5113 12.2567 72.3038 12.5258 72.0251 12.7149L72.0813 12.7977ZM72.7401 11.9384L72.8335 11.9741C72.9807 11.589 73.0528 11.1372 73.0528 10.6208H72.9528H72.8528C72.8528 11.1192 72.7831 11.5458 72.6467 11.9027L72.7401 11.9384ZM72.9528 10.6208H73.0528C73.0528 9.83614 72.888 9.20934 72.546 8.75234L72.4659 8.81226L72.3859 8.87218C72.6931 9.28263 72.8528 9.86155 72.8528 10.6208H72.9528ZM72.4659 8.81226L72.5464 8.7529C72.2008 8.28426 71.6633 8.05757 70.956 8.05757V8.15757V8.25757C71.6182 8.25757 72.0873 8.46734 72.3854 8.87161L72.4659 8.81226ZM70.956 8.15757V8.05757C70.4782 8.05757 70.0756 8.1602 69.755 8.37295L69.8103 8.45627L69.8656 8.53959C70.1452 8.35407 70.5064 8.25757 70.956 8.25757V8.15757ZM69.8103 8.45627L69.755 8.37295C69.4364 8.58444 69.2005 8.88511 69.0464 9.27022L69.1393 9.30736L69.2321 9.3445C69.3727 8.99309 69.5842 8.72637 69.8656 8.53959L69.8103 8.45627ZM69.1393 9.30736L69.0463 9.27058C68.8959 9.65074 68.8224 10.1017 68.8224 10.6208H68.9224H69.0224C69.0224 10.1197 69.0935 9.69505 69.2323 9.34414L69.1393 9.30736ZM79.6961 13.6201V13.7201H79.7961V13.6201H79.6961ZM78.8941 13.6201L78.8102 13.6746L78.8398 13.7201H78.8941V13.6201ZM75.633 8.59539L75.7169 8.54095L75.6873 8.49539H75.633V8.59539ZM75.6002 8.59539V8.49539H75.4939L75.5004 8.6015L75.6002 8.59539ZM75.6289 9.05367L75.5291 9.06001L75.5291 9.06011L75.6289 9.05367ZM75.6534 9.59788L75.5535 9.6007L75.5535 9.60216L75.6534 9.59788ZM75.6657 13.6201V13.7201H75.7657V13.6201H75.6657ZM75.0192 13.6201H74.9192V13.7201H75.0192V13.6201ZM75.0192 7.63791V7.53791H74.9192V7.63791H75.0192ZM75.8171 7.63791L75.901 7.58349L75.8714 7.53791H75.8171V7.63791ZM79.066 12.6463L78.9821 12.7007L79.0117 12.7463H79.066V12.6463ZM79.0946 12.6463V12.7463H79.2005L79.1945 12.6406L79.0946 12.6463ZM79.0742 12.2412L78.9743 12.2458L78.9743 12.2459L79.0742 12.2412ZM79.0496 11.6724L78.9496 11.6751L78.9497 11.6765L79.0496 11.6724ZM79.0414 7.63791V7.53791H78.9414V7.63791H79.0414ZM79.6961 7.63791H79.7961V7.53791H79.6961V7.63791ZM79.6961 13.6201V13.5201H78.8941V13.6201V13.7201H79.6961V13.6201ZM78.8941 13.6201L78.978 13.5657L75.7169 8.54095L75.633 8.59539L75.5491 8.64983L78.8102 13.6746L78.8941 13.6201ZM75.633 8.59539V8.49539H75.6002V8.59539V8.69539H75.633V8.59539ZM75.6002 8.59539L75.5004 8.6015C75.5086 8.73526 75.5182 8.8881 75.5291 9.06001L75.6289 9.05367L75.7287 9.04734C75.7178 8.87554 75.7082 8.72285 75.7 8.58928L75.6002 8.59539ZM75.6289 9.05367L75.5291 9.06011C75.5399 9.22788 75.548 9.40806 75.5535 9.6007L75.6534 9.59788L75.7534 9.59507C75.7479 9.40035 75.7397 9.21772 75.7287 9.04723L75.6289 9.05367ZM75.6534 9.59788L75.5535 9.60216C75.5616 9.79163 75.5657 9.98524 75.5657 10.183H75.6657H75.7657C75.7657 9.98251 75.7616 9.78603 75.7533 9.5936L75.6534 9.59788ZM75.6657 10.183H75.5657V13.6201H75.6657H75.7657V10.183H75.6657ZM75.6657 13.6201V13.5201H75.0192V13.6201V13.7201H75.6657V13.6201ZM75.0192 13.6201H75.1192V7.63791H75.0192H74.9192V13.6201H75.0192ZM75.0192 7.63791V7.73791H75.8171V7.63791V7.53791H75.0192V7.63791ZM75.8171 7.63791L75.7332 7.69233L78.9821 12.7007L79.066 12.6463L79.1499 12.5918L75.901 7.58349L75.8171 7.63791ZM79.066 12.6463V12.7463H79.0946V12.6463V12.5463H79.066V12.6463ZM79.0946 12.6463L79.1945 12.6406C79.189 12.5456 79.1822 12.411 79.1741 12.2365L79.0742 12.2412L78.9743 12.2459C78.9825 12.4206 78.9893 12.556 78.9948 12.652L79.0946 12.6463ZM79.0742 12.2412L79.1741 12.2366C79.1659 12.0595 79.1577 11.8701 79.1495 11.6684L79.0496 11.6724L78.9497 11.6765C78.9579 11.8785 78.9661 12.0683 78.9743 12.2458L79.0742 12.2412ZM79.0496 11.6724L79.1496 11.6698C79.1441 11.4659 79.1414 11.2772 79.1414 11.1037H79.0414H78.9414C78.9414 11.2793 78.9442 11.4698 78.9497 11.6751L79.0496 11.6724ZM79.0414 11.1037H79.1414V7.63791H79.0414H78.9414V11.1037H79.0414ZM79.0414 7.63791V7.73791H79.6961V7.63791V7.53791H79.0414V7.63791ZM79.6961 7.63791H79.5961V13.6201H79.6961H79.7961V7.63791H79.6961Z" fill="white"/>
<path d="M68.14 21.75C67.2974 21.752 66.4744 22.0037 65.7749 22.4735C65.0755 22.9432 64.531 23.6098 64.2104 24.389C63.8898 25.1682 63.8075 26.0249 63.9738 26.8509C64.1401 27.6768 64.5476 28.4349 65.1448 29.0293C65.742 29.6237 66.502 30.0276 67.3287 30.1901C68.1555 30.3525 69.0118 30.2661 69.7895 29.9419C70.5671 29.6176 71.2311 29.07 71.6976 28.3684C72.164 27.6667 72.412 26.8425 72.41 26C72.4181 25.4379 72.3131 24.88 72.1012 24.3593C71.8892 23.8387 71.5746 23.366 71.1762 22.9695C70.7778 22.5729 70.3037 22.2606 69.7821 22.0511C69.2604 21.8416 68.702 21.7392 68.14 21.75V21.75ZM68.14 28.58C67.6236 28.6161 67.1082 28.496 66.6609 28.2354C66.2137 27.9747 65.8552 27.5855 65.632 27.1184C65.4088 26.6513 65.3314 26.1279 65.4097 25.6161C65.4879 25.1044 65.7184 24.6281 66.0709 24.249C66.4235 23.87 66.882 23.6058 67.3867 23.4908C67.8915 23.3757 68.4192 23.4152 68.9012 23.6041C69.3832 23.7929 69.7972 24.1224 70.0895 24.5497C70.3818 24.977 70.5387 25.4823 70.54 26C70.5561 26.328 70.5063 26.6559 70.3937 26.9644C70.2811 27.2729 70.1078 27.5557 69.8841 27.7962C69.6604 28.0366 69.3909 28.2299 69.0913 28.3645C68.7918 28.4991 68.4683 28.5724 68.14 28.58ZM58.82 21.75C57.9774 21.752 57.1544 22.0037 56.4549 22.4735C55.7555 22.9432 55.211 23.6098 54.8904 24.389C54.5698 25.1682 54.4875 26.0249 54.6538 26.8509C54.8201 27.6768 55.2276 28.4349 55.8248 29.0293C56.422 29.6237 57.182 30.0276 58.0087 30.1901C58.8355 30.3525 59.6918 30.2661 60.4695 29.9419C61.2471 29.6176 61.9111 29.07 62.3776 28.3684C62.844 27.6667 63.0919 26.8425 63.09 26C63.0981 25.4379 62.9931 24.88 62.7812 24.3593C62.5692 23.8387 62.2546 23.366 61.8562 22.9695C61.4578 22.5729 60.9837 22.2606 60.4621 22.0511C59.9404 21.8416 59.382 21.7392 58.82 21.75V21.75ZM58.82 28.58C58.3036 28.6161 57.7882 28.496 57.3409 28.2354C56.8937 27.9747 56.5352 27.5855 56.312 27.1184C56.0888 26.6513 56.0114 26.1279 56.0897 25.6161C56.1679 25.1044 56.3984 24.6281 56.7509 24.249C57.1035 23.87 57.562 23.6058 58.0667 23.4908C58.5715 23.3757 59.0992 23.4152 59.5812 23.6041C60.0632 23.7929 60.4772 24.1224 60.7695 24.5497C61.0618 24.977 61.2187 25.4823 61.22 26C61.2361 26.328 61.1863 26.6559 61.0737 26.9644C60.9611 27.2729 60.7878 27.5557 60.5641 27.7962C60.3404 28.0366 60.0709 28.2299 59.7713 28.3645C59.4718 28.4991 59.1483 28.5724 58.82 28.58ZM47.74 23.06V24.86H52.06C51.9922 25.7078 51.6398 26.5078 51.06 27.13C50.6266 27.5715 50.1054 27.9171 49.5301 28.1445C48.9547 28.3719 48.3381 28.476 47.72 28.45C46.4469 28.45 45.226 27.9443 44.3259 27.0441C43.4257 26.1439 42.92 24.923 42.92 23.65C42.92 22.3769 43.4257 21.156 44.3259 20.2559C45.226 19.3557 46.4469 18.85 47.72 18.85C48.9404 18.8318 50.1189 19.2953 51 20.14L52.27 18.87C51.674 18.2805 50.9663 17.8159 50.1884 17.5034C49.4106 17.1908 48.5782 17.0367 47.74 17.05C46.851 17.0154 45.9641 17.1606 45.1326 17.477C44.3011 17.7933 43.5419 18.2743 42.9007 18.891C42.2595 19.5077 41.7494 20.2476 41.401 21.0662C41.0525 21.8848 40.8729 22.7653 40.8729 23.655C40.8729 24.5447 41.0525 25.4252 41.401 26.2438C41.7494 27.0624 42.2595 27.8022 42.9007 28.419C43.5419 29.0357 44.3011 29.5167 45.1326 29.833C45.9641 30.1494 46.851 30.2946 47.74 30.26C48.5954 30.2941 49.4484 30.147 50.2429 29.8281C51.0374 29.5093 51.7555 29.026 52.35 28.41C53.4001 27.2564 53.9596 25.7392 53.91 24.18C53.9136 23.8047 53.8834 23.4299 53.82 23.06H47.74ZM93.05 24.46C92.7892 23.6927 92.3015 23.0228 91.6515 22.5388C91.0015 22.0549 90.2198 21.7798 89.41 21.75C88.863 21.7489 88.3216 21.86 87.8192 22.0765C87.3169 22.293 86.8643 22.6102 86.4894 23.0085C86.1145 23.4068 85.8252 23.8778 85.6396 24.3924C85.4539 24.9069 85.3758 25.454 85.41 26C85.4014 26.9128 85.6884 27.804 86.2281 28.5402C86.7678 29.2765 87.5312 29.8185 88.4042 30.0851C89.2773 30.3518 90.2132 30.3288 91.0722 30.0197C91.9311 29.7106 92.667 29.1318 93.17 28.37L91.72 27.37C91.5038 27.7303 91.1972 28.0278 90.8306 28.233C90.464 28.4382 90.0501 28.5441 89.63 28.54C89.1965 28.5579 88.7678 28.4442 88.4002 28.214C88.0325 27.9838 87.7431 27.6477 87.57 27.25L93.26 24.9L93.05 24.46ZM87.25 25.88C87.2297 25.5694 87.2716 25.2578 87.3733 24.9636C87.4749 24.6694 87.6342 24.3984 87.8419 24.1665C88.0496 23.9346 88.3014 23.7465 88.5827 23.6132C88.864 23.4798 89.169 23.404 89.48 23.39C89.8022 23.3703 90.123 23.4462 90.4023 23.6081C90.6816 23.7699 90.9069 24.0106 91.05 24.3L87.25 25.88ZM82.63 30H84.5V17.5H82.63V30ZM79.57 22.7H79.5C79.2206 22.3818 78.8759 22.1278 78.4893 21.9552C78.1027 21.7826 77.6833 21.6956 77.26 21.7C76.1672 21.753 75.1366 22.2244 74.382 23.0166C73.6273 23.8087 73.2063 24.8609 73.2063 25.955C73.2063 27.0491 73.6273 28.1012 74.382 28.8934C75.1366 29.6856 76.1672 30.157 77.26 30.21C77.6839 30.2185 78.1046 30.1333 78.4918 29.9604C78.879 29.7875 79.2233 29.5313 79.5 29.21H79.57V29.82C79.57 31.45 78.7 32.32 77.3 32.32C76.8323 32.3097 76.3782 32.1607 75.9954 31.8918C75.6126 31.623 75.3183 31.2464 75.15 30.81L73.53 31.48C73.8295 32.2322 74.3502 32.8759 75.0234 33.3258C75.6965 33.7758 76.4904 34.0109 77.3 34C79.49 34 81.3 32.71 81.3 29.57V22H79.57V22.7ZM77.42 28.58C76.7648 28.5391 76.1498 28.2501 75.7003 27.7716C75.2508 27.2932 75.0005 26.6615 75.0005 26.005C75.0005 25.3485 75.2508 24.7167 75.7003 24.2383C76.1498 23.7599 76.7648 23.4708 77.42 23.43C77.7402 23.4438 78.0544 23.5219 78.3438 23.6596C78.6333 23.7973 78.8921 23.9919 79.1048 24.2317C79.3175 24.4714 79.4798 24.7516 79.5821 25.0553C79.6843 25.3591 79.7244 25.6804 79.7 26C79.7273 26.3207 79.6892 26.6436 79.5881 26.9491C79.4871 27.2547 79.3251 27.5366 79.1119 27.7778C78.8988 28.0189 78.639 28.2144 78.3482 28.3523C78.0573 28.4902 77.7416 28.5676 77.42 28.58V28.58ZM101.81 17.5H97.33V30H99.2V25.26H101.81C102.343 25.2983 102.878 25.2264 103.382 25.0487C103.886 24.8711 104.348 24.5915 104.739 24.2275C105.13 23.8634 105.442 23.4227 105.655 22.9328C105.869 22.4429 105.979 21.9143 105.979 21.38C105.979 20.8457 105.869 20.3171 105.655 19.8272C105.442 19.3372 105.13 18.8965 104.739 18.5325C104.348 18.1685 103.886 17.8889 103.382 17.7113C102.878 17.5336 102.343 17.4617 101.81 17.5V17.5ZM101.81 23.5H99.2V19.24H101.85C102.131 19.24 102.409 19.2953 102.669 19.4029C102.929 19.5104 103.164 19.6681 103.363 19.8668C103.562 20.0655 103.72 20.3014 103.827 20.561C103.935 20.8207 103.99 21.099 103.99 21.38C103.99 21.661 103.935 21.9393 103.827 22.1989C103.72 22.4586 103.562 22.6945 103.363 22.8932C103.164 23.0919 102.929 23.2495 102.669 23.3571C102.409 23.4646 102.131 23.52 101.85 23.52L101.81 23.5ZM113.35 21.71C112.669 21.668 111.991 21.8265 111.399 22.166C110.807 22.5055 110.328 23.011 110.02 23.62L111.67 24.31C111.837 24.0094 112.087 23.7635 112.39 23.602C112.694 23.4405 113.038 23.3704 113.38 23.4C113.617 23.3723 113.858 23.3921 114.088 23.4583C114.317 23.5245 114.531 23.6358 114.718 23.7857C114.904 23.9356 115.058 24.121 115.172 24.3312C115.286 24.5414 115.356 24.7722 115.38 25.01V25.13C114.779 24.8139 114.109 24.6491 113.43 24.65C111.65 24.65 109.83 25.65 109.83 27.47C109.848 27.8568 109.943 28.2362 110.11 28.5855C110.277 28.9349 110.513 29.2471 110.803 29.5036C111.093 29.7601 111.431 29.9557 111.799 30.0788C112.166 30.2018 112.554 30.2499 112.94 30.22C113.409 30.2459 113.877 30.1466 114.295 29.9323C114.713 29.7179 115.067 29.3961 115.32 29H115.38V30H117.18V25.19C117.18 23 115.52 21.73 113.39 21.73L113.35 21.71ZM113.12 28.56C112.51 28.56 111.66 28.25 111.66 27.5C111.66 26.5 112.72 26.16 113.66 26.16C114.254 26.1453 114.841 26.2904 115.36 26.58C115.297 27.1231 115.04 27.625 114.635 27.9927C114.231 28.3604 113.707 28.5691 113.16 28.58L113.12 28.56ZM123.74 22L121.6 27.42H121.54L119.32 22H117.32L120.65 29.58L118.75 33.79H120.7L125.82 22H123.74ZM106.94 30H108.8V17.5H106.94V30Z" fill="white"/>
<path d="M20.72 19.42L10.07 30.72C10.1864 31.1474 10.3994 31.5423 10.6926 31.8743C10.9859 32.2063 11.3516 32.4664 11.7613 32.6345C12.1711 32.8027 12.6141 32.8744 13.056 32.8442C13.4979 32.8139 13.927 32.6824 14.31 32.46V32.46L26.31 25.54L20.72 19.42Z" fill="#EA4335"/>
<path d="M31.49 17.5L26.31 14.5L20.49 19.69L26.33 25.54L31.48 22.54C31.9378 22.2948 32.3205 21.93 32.5873 21.4845C32.8541 21.0389 32.995 20.5293 32.995 20.01C32.995 19.4907 32.8541 18.9811 32.5873 18.5355C32.3205 18.09 31.9378 17.7252 31.48 17.48L31.49 17.5Z" fill="#FBBC04"/>
<path d="M10.07 9.28027C10.0171 9.51648 9.99359 9.75831 9.99999 10.0003V30.0003C10.0017 30.2502 10.0353 30.4989 10.1 30.7403L21.1 19.7403L10.07 9.28027Z" fill="#4285F4"/>
<path d="M20.8 19.9996L26.31 14.4896L14.31 7.54965C13.8591 7.28165 13.3445 7.14002 12.82 7.13965C12.1873 7.14146 11.5728 7.35082 11.0706 7.73558C10.5684 8.12035 10.2063 8.65927 10.04 9.26965V9.26965L20.8 19.9996Z" fill="#34A853"/>
</svg>
